<?xml version="1.0" encoding="utf-8"?>
<!-- Generator: Adobe Illustrator 26.4.0, SVG Export Plug-In . SVG Version: 6.00 Build 0)  -->
<svg version="1.1" id="Layer_1" xmlns="http://www.w3.org/2000/svg" xmlns:xlink="http://www.w3.org/1999/xlink" x="0px" y="0px"
	 viewBox="0 0 512 512" style="enable-background:new 0 0 512 512;" xml:space="preserve">
<style type="text/css">
	.st0{fill:#470137;}
	.st1{fill:#FF61F6;}
</style>
<g id="Layer_2_1_">
	<g id="Surfaces">
		<g id="UI_UX_Surface">
			<g id="Outline_no_shadow">
				<path class="st0" d="M111.3,39.1H404c44.4,0,80.3,35.4,80.3,79.2v277.8c0,43.8-35.9,79.2-80.3,79.2H111.3
					C66.9,475.4,31,440,31,396.1V118.3C31,74.5,66.9,39.1,111.3,39.1z"/>
			</g>
		</g>
	</g>
	<g id="Outlined_Mnemonics_Logos">
		<g id="Xd">
			<path class="st1" d="M269.3,153.8l-56.7,92.3l60.4,97.9c0.4,0.7,0.6,1.5,0.4,2.2c-0.2,0.7-0.9,0.2-2.1,0.4h-43.2
				c-3,0-5.1-0.2-6.4-2.1c-4-7.8-8.1-15.5-12.1-23.3c-4-7.6-8.3-15.5-12.8-23.5c-4.5-8-9.1-16-13.6-24.2h-0.4c-4,8-8.3,16-12.7,24.1
				c-4.3,8-8.7,16-12.8,23.9c-4.3,7.8-8.7,15.8-13,23.5c-0.8,1.9-2.3,2.1-4.3,2.1H98.4c-0.8,0-1.3,0.4-1.3-0.6
				c-0.2-0.7,0-1.5,0.4-2.1l58.7-95.1L99,153.6c-0.6-0.7-0.8-1.5-0.4-1.9c0.4-0.6,1.1-0.7,1.9-0.7h42.9c0.9,0,1.9,0.2,2.6,0.4
				c0.8,0.4,1.3,0.9,1.9,1.7c3.6,8,7.7,16,12.1,24.1c4.5,8,8.9,15.8,13.6,23.7c4.5,7.8,8.7,15.7,12.7,23.7h0.4
				c4-8.2,8.1-16.2,12.3-24.1c4.2-7.8,8.5-15.7,12.8-23.5c4.3-7.8,8.5-15.8,12.7-23.5c0.2-0.7,0.6-1.5,1.1-1.9
				c0.8-0.4,1.5-0.6,2.5-0.4h39.8c0.9-0.2,1.9,0.4,2.1,1.3C270.1,152.6,269.7,153.4,269.3,153.8L269.3,153.8z"/>
			<path class="st1" d="M356.6,350.5c-14,0.2-28-2.6-40.6-8.4c-11.9-5.4-21.7-14.4-28.5-25.4c-7-11.4-10.4-25.5-10.4-42.5
				c-0.2-13.8,3.4-27.4,10.4-39.3c7.2-12.1,17.6-22.2,30-28.9c13.2-7.3,29.1-10.8,47.8-10.8c0.9,0,2.3,0,4,0.2
				c1.7,0.2,3.6,0.2,5.9,0.4v-58.9c0-1.3,0.6-2.1,1.9-2.1h38.3c0.9-0.2,1.7,0.6,1.9,1.3c0,0.2,0,0.4,0,0.4v177.5
				c0,3.4,0.2,7.1,0.4,11.2c0.4,3.9,0.6,7.6,0.8,10.8c0,1.3-0.6,2.4-1.9,3c-9.8,4.1-20.2,7.1-30.8,8.9
				C376,349.5,366.4,350.5,356.6,350.5z M375.1,313.2v-82c-1.7-0.4-3.4-0.7-5.1-0.9c-2.1-0.2-4.2-0.4-6.2-0.4
				c-7.4,0-14.7,1.5-21.3,4.8c-6.4,3.2-11.9,7.8-16.1,13.8c-4.2,6-6.2,14-6.2,23.7c-0.2,6.5,0.9,13.1,3.2,19.2
				c1.9,5,4.7,9.5,8.5,13.2c3.6,3.4,7.9,6,12.8,7.5c5.1,1.7,10.4,2.4,15.7,2.4c2.8,0,5.5-0.2,7.9-0.4
				C370.8,314.3,372.8,313.9,375.1,313.2z"/>
		</g>
	</g>
</g>
</svg>
