<?xml version="1.0" encoding="utf-8"?>
<!-- Generator: Adobe Illustrator 26.4.0, SVG Export Plug-In . SVG Version: 6.00 Build 0)  -->
<svg version="1.1" id="Layer_1" xmlns="http://www.w3.org/2000/svg" xmlns:xlink="http://www.w3.org/1999/xlink" x="0px" y="0px"
	 viewBox="0 0 512 512" style="enable-background:new 0 0 512 512;" xml:space="preserve">
<style type="text/css">
	.st0{fill:#0ACF83;}
	.st1{fill:#A259FF;}
	.st2{fill:#F24E1E;}
	.st3{fill:#FF7262;}
	.st4{fill:#1ABCFE;}
</style>
<g>
	<path class="st0" d="M182.9,475.4c40.4,0,73.1-32.7,73.1-73.1v-73.1h-73.1c-40.4,0-73.1,32.8-73.1,73.1
		C109.8,442.6,142.5,475.4,182.9,475.4z"/>
	<path class="st1" d="M109.7,256c0-40.4,32.7-73.1,73.1-73.1H256v146.3h-73.1C142.5,329.1,109.7,296.4,109.7,256z"/>
	<path class="st2" d="M109.7,109.7c0-40.4,32.7-73.1,73.1-73.1h73.1v146.3h-73.1C142.5,182.9,109.7,150.1,109.7,109.7z"/>
	<path class="st3" d="M256,36.6h73.1c40.4,0,73.1,32.8,73.1,73.1c0,40.4-32.7,73.1-73.1,73.1H256V36.6z"/>
	<path class="st4" d="M402.3,256c0,40.4-32.8,73.1-73.1,73.1c-40.4,0-73.1-32.7-73.1-73.1c0-40.4,32.8-73.1,73.1-73.1
		C369.5,182.9,402.2,215.6,402.3,256z"/>
</g>
</svg>
