<?xml version="1.0" encoding="utf-8"?>
<!-- Generator: Adobe Illustrator 26.4.0, SVG Export Plug-In . SVG Version: 6.00 Build 0)  -->
<svg version="1.1" id="Layer_1" xmlns="http://www.w3.org/2000/svg" xmlns:xlink="http://www.w3.org/1999/xlink" x="0px" y="0px"
	 viewBox="0 0 512 512" style="enable-background:new 0 0 512 512;" xml:space="preserve">
<style type="text/css">
	.st0{fill-rule:evenodd;clip-rule:evenodd;fill:#FDB300;}
	.st1{fill-rule:evenodd;clip-rule:evenodd;fill:#EA6C00;}
	.st2{fill-rule:evenodd;clip-rule:evenodd;fill:#FDAD00;}
	.st3{fill-rule:evenodd;clip-rule:evenodd;fill:#FDD231;}
	.st4{fill-rule:evenodd;clip-rule:evenodd;fill:#FEEEB7;}
</style>
<g id="Layer_x0020_1">
	<g id="Sketch_Logo.svg">
		<g id="Page-1">
			<g id="sketch-symbol">
				<path id="Path" class="st0" d="M121.7,54.4l135.6-14.3l135.6,14.3l105,140.9L257.3,475.4L16.8,195.3L121.7,54.4z"/>
				<g id="Group">
					<path id="Path_0" class="st1" d="M114.2,195.3l143.1,280.1L16.8,195.3H114.2z"/>
					<path id="Path_1" class="st1" d="M400.4,195.3L257.3,475.4l240.5-280.1H400.4z"/>
					<path id="Path_2" class="st2" d="M114.2,195.3h286.2L257.3,475.4L114.2,195.3z"/>
				</g>
				<g id="Group_3">
					<path id="Path_4" class="st3" d="M257.3,40.1L121.7,54.4l-7.5,140.9L257.3,40.1z"/>
					<path id="Path_5" class="st3" d="M257.3,40.1l135.6,14.3l7.5,140.9L257.3,40.1z"/>
					<path id="Path_6" class="st2" d="M497.8,195.3l-105-140.9l7.5,140.9H497.8z"/>
					<path id="Path_7" class="st2" d="M16.8,195.3l105-140.9l-7.5,140.9H16.8z"/>
					<path id="Path_8" class="st4" d="M257.3,40.1L114.2,195.3h286.2L257.3,40.1z"/>
				</g>
			</g>
		</g>
	</g>
</g>
</svg>
